<svg width="25" height="25" viewBox="0 0 25 25" fill="none" xmlns="http://www.w3.org/2000/svg">
<g clip-path="url(#clip0_1552_23490)">
<path d="M20.7021 18.6623C18.7273 18.6502 16.7912 18.1132 15.0924 17.1062C13.3936 16.0992 11.9931 14.6585 11.0346 12.9318C10.0761 11.2052 9.59408 9.25464 9.63793 7.28026C9.68178 5.30589 10.2499 3.3787 11.2841 1.69629C8.55933 2.17464 6.11017 3.65017 4.41374 5.83545C2.71731 8.02074 1.8951 10.7593 2.10728 13.5176C2.31946 16.2759 3.55083 18.8565 5.56152 20.7566C7.57221 22.6567 10.2182 23.7403 12.9841 23.7963C14.8764 23.8011 16.7379 23.3169 18.388 22.3906C20.0381 21.4643 21.4208 20.1273 22.4021 18.5093C21.84 18.6022 21.2718 18.6533 20.7021 18.6623V18.6623Z" stroke="#000001" stroke-linecap="round" stroke-linejoin="round"/>
</g>
<defs>
<clipPath id="clip0_1552_23490">
<rect width="23.8" height="23.8" fill="white" transform="translate(0.302124 0.846313)"/>
</clipPath>
</defs>
</svg>
