<svg width="25" height="25" viewBox="0 0 25 25" fill="none" xmlns="http://www.w3.org/2000/svg">
<g clip-path="url(#clip0_1552_23422)">
<path d="M12.8021 17.6712C15.8535 17.6712 18.3271 15.1976 18.3271 12.1462C18.3271 9.09483 15.8535 6.62122 12.8021 6.62122C9.75072 6.62122 7.2771 9.09483 7.2771 12.1462C7.2771 15.1976 9.75072 17.6712 12.8021 17.6712Z" stroke="black" stroke-linecap="round" stroke-linejoin="round"/>
<path d="M12.8021 1.09619V2.79619" stroke="black" stroke-linecap="round" stroke-linejoin="round"/>
<path d="M12.8021 21.4962V23.1962" stroke="black" stroke-linecap="round" stroke-linejoin="round"/>
<path d="M23.8521 12.1462H22.1521" stroke="black" stroke-linecap="round" stroke-linejoin="round"/>
<path d="M3.45211 12.1462H1.75211" stroke="black" stroke-linecap="round" stroke-linejoin="round"/>
<path d="M20.6221 4.32605L19.4151 5.53305" stroke="black" stroke-linecap="round" stroke-linejoin="round"/>
<path d="M6.18909 18.7594L4.98209 19.9664" stroke="black" stroke-linecap="round" stroke-linejoin="round"/>
<path d="M20.6221 19.9664L19.4151 18.7594" stroke="black" stroke-linecap="round" stroke-linejoin="round"/>
<path d="M6.18909 5.53305L4.98209 4.32605" stroke="black" stroke-linecap="round" stroke-linejoin="round"/>
</g>
<defs>
<clipPath id="clip0_1552_23422">
<rect width="23.8" height="23.8" fill="white" transform="translate(0.9021 0.246216)"/>
</clipPath>
</defs>
</svg>
